<svg id="Livello_1" data-name="Livello 1" xmlns="http://www.w3.org/2000/svg" viewBox="0 0 426.75 398.65"><defs><style>.cls-1{fill:#fff;}</style></defs><path d="M421,264h6.72c.21,2.25.39,4.33.6,6.7l6.34.4v20.51l-6.41.57c-.13,2.15-.25,4.22-.39,6.57l-6.5.3c-.17,2.12-.34,4.19-.54,6.57l-6.57.58c-.12,2.06-.23,4-.37,6.39l-6.5.58v6.56l6.5.37c.1,2.23.2,4.18.32,6.66h13.62c.16,2.55.28,4.62.42,7h13.45c.21,2.39.4,4.45.63,7h27.5c.15,2.44.27,4.38.42,6.86h34.47v21l-6.33.36c-.18,2-.36,4.08-.59,6.68H484.23c-.16,2.55-.28,4.63-.42,7H470.36c-.21,2.39-.4,4.46-.63,7H456.21c-.14,2.45-.24,4.39-.37,6.75l-6.52.58v34.54l6.43.4v27.44l7.2.65V494.7l6.73.33c.18,2.1.35,4.18.55,6.55l6.56.59c.13,2.06.25,4,.4,6.49h13.45c.23,2.56.41,4.63.65,7.2h13.53c.12,2.46.21,4.4.33,7H512v21h-6.7c-.26,2.76-.46,4.83-.64,6.83l-6.39.38c-.21,2.39-.4,4.46-.59,6.55l-6.54.56c-.11,2.38-.21,4.33-.31,6.42l-6.6.54c-.19,2.39-.37,4.46-.54,6.59l-6.51.3c-.13,2.34-.25,4.41-.37,6.57l-6.56.57c-.21,2.42-.4,4.5-.58,6.51l-6.39.38c-.21,2.37-.4,4.45-.59,6.57l-6.55.55c-.11,2.35-.21,4.29-.31,6.39H435.24c-.2-2.36-.38-4.43-.56-6.57l-6.4-.31V579.14l6.58-.57c.11-2.28.2-4.23.31-6.69H448.7c.24-2.58.42-4.65.62-6.76l6.54-.55c.11-2.36.21-4.31.31-6.43l6.59-.51c.2-2.39.38-4.47.54-6.47l6.53-.62c.15-2.4.27-4.35.39-6.38l6.58-.59v-6.68H463.27c-.21-2.57-.38-4.64-.54-6.64H442.17c-.14,2.31-.25,4.26-.39,6.71H407.27c-.23,2.58-.42,4.65-.6,6.69H365.16c-.12-2.27-.23-4.34-.36-6.89H309.15c-.12-2.47-.21-4.42-.32-6.61H260.28l-.59,6.51-6.55.55c-.11,2.35-.21,4.3-.31,6.45l-6.57.47c-.22,2.4-.4,4.46-.62,6.85H232.16c-.12,2.41-.22,4.48-.35,7H211.15c-.12,2.47-.21,4.42-.33,6.88H190.28c-.22,2.58-.4,4.65-.62,7.2H162.18c-.14,2.48-.26,4.43-.41,6.88H148.25l-.57,6.77-6.47.31-.44,6.58-6.51.56-.6,6.52-6.39.38-.58,6.55-6.55.56-.31,6.41-6.83.57v6.7H92v-6.7l-6.75-.56V600.22l6.45-.58.58-6.61h13.36l.61-6.83,6.54-.59.39-6.38,6.51-.6.56-6.54,6.58-.38.3-6.51,6.59-.54.54-6.57,6.54-.38V544h21c.15-2.47.27-4.42.41-6.9h13.73v-14l6.9-.4V502.19l7.2-.56V481.05l6.89-.32V467.1l6.72-.37v-6.54l-6.39-.56c-.13-2-.26-4-.42-6.48H176.38c-.24-2.57-.42-4.64-.64-7H162.41V425.24h27.38c.12,2,.24,3.91.4,6.4h13.44c.23,2.57.42,4.63.65,7.22h62.53c.12,2.46.22,4.41.33,6.69h76.67c.12-2.08.24-4.14.37-6.56h13.46c.21-2.39.4-4.46.63-7H371.8c.13-2.46.23-4.41.36-6.89h13.63c.14-2.56.26-4.64.39-7l6.5-.31c.18-2.09.35-4.16.55-6.55l6.5-.59V376.05l-6.62-.32V362.12l-6.77-.41c-.18-2-.38-4.09-.62-6.69H372V341.07l-6.69-.32V327.17h20.51c.1,2.17.19,4.11.3,6.4l6.67.58c.12,2.16.24,4.23.36,6.51h6.52c.17-2,.35-4.11.55-6.5l6.51-.52V327.2l-6.44-.54c-.19-2.11-.37-4.19-.59-6.56l-6.38-.39c-.18-2-.38-4.08-.62-6.69H379.24c-.15-2.45-.27-4.39-.43-6.87H365.37c-.23-2.57-.42-4.64-.65-7.22H351.19c-.12-2.47-.22-4.41-.34-6.89H337.21c-.14-2.56-.26-4.64-.38-7l-6.52-.3c-.17-2.12-.34-4.2-.54-6.58l-6.6-.56c-.1-2.09-.2-4-.31-6.4l-6.76-.59V257.12l-6.72-.41V229h6.68l-.14-.14v20.7l7,.63v13.54l6.72.32c.18,2.11.35,4.18.55,6.55l6.57.59.37,6.38,6.53.61c.16,2,.34,4.08.53,6.43h6.6c.1-2,.2-4,.31-6.37l6.55-.58c.18-2.05.36-4.12.57-6.55l6.57-.39c.1-2.19.2-4.14.31-6.49l6.95-.59V249.83L372,250h6.74v20.71l-6.35.39c-.19,2-.38,4.08-.6,6.51l-6.54.56c-.12,2.16-.25,4.23-.39,6.58l-6.45.3v6.79h13.41c.15,2.45.27,4.4.41,6.87h13.49c.21,2.55.39,4.63.59,6.94h20.58c.1-2.18.19-4.12.3-6.41l6.67-.58c.12-2.15.24-4.23.37-6.57l6.51-.3c.17-2.13.34-4.2.54-6.58l6.52-.55v-6.41l-6.66-.6V263.83Z" transform="translate(-85.25 -222.24)"/><path class="cls-1" d="M113,620.89v-6.7l6.83-.57.31-6.41,6.55-.56.58-6.55,6.39-.38.6-6.52,6.51-.56.44-6.58,6.47-.31.57-6.77h13.52c.15-2.45.27-4.4.41-6.88h27.48c.22-2.55.4-4.62.62-7.2h20.54c.12-2.46.21-4.41.33-6.88h20.66c.13-2.56.23-4.63.35-7h13.48c.22-2.39.4-4.45.62-6.85l6.57-.47c.1-2.15.2-4.1.31-6.45l6.55-.55.59-6.51h48.55c.11,2.19.2,4.14.32,6.61H364.8c.13,2.55.24,4.62.36,6.89h41.51c.18-2,.37-4.11.6-6.69h34.51c.14-2.45.25-4.4.39-6.71h20.56c.16,2,.33,4.07.54,6.64H476.8v6.68l-6.58.59c-.12,2-.24,4-.39,6.38l-6.53.62c-.16,2-.34,4.08-.54,6.47l-6.59.51c-.1,2.12-.2,4.07-.31,6.43l-6.54.55c-.2,2.11-.38,4.18-.62,6.76H435.17c-.11,2.46-.2,4.41-.31,6.69l-6.58.57v13.58l6.4.31c.18,2.14.36,4.21.56,6.57h20.59c.1-2.1.2-4,.31-6.39l6.55-.55c.19-2.12.38-4.2.59-6.57l6.39-.38c.18-2,.37-4.09.58-6.51l6.56-.57c.12-2.16.24-4.23.37-6.57l6.51-.3c.17-2.13.35-4.2.54-6.59l6.6-.54c.1-2.09.2-4,.31-6.42l6.54-.56c.19-2.09.38-4.16.59-6.55l6.39-.38c.18-2,.38-4.07.64-6.83H512v77Z" transform="translate(-85.25 -222.24)"/><path d="M316.06,229v-6.74h6.62v6.59h-6.76Z" transform="translate(-85.25 -222.24)"/><path d="M372.09,249.83h-6.74v-6.62h6.59V250Z" transform="translate(-85.25 -222.24)"/><path d="M421.09,263.83h-6.74v-6.62h6.59V264Z" transform="translate(-85.25 -222.24)"/></svg>