<svg id="Livello_1" data-name="Livello 1" xmlns="http://www.w3.org/2000/svg" viewBox="0 0 39.98 37.35"><defs><style>.cls-1{fill:#fff;}</style></defs><path d="M310.08,406.8h.63l.06.63.59,0v1.92l-.6.05,0,.62-.61,0-.05.62-.62.05,0,.6-.61.06V412l.61,0,0,.62h1.27l0,.66H312l.06.66h2.58l0,.64h3.23v2l-.6,0-.05.62H316l0,.66h-1.26l-.06.66h-1.26l0,.63-.61.06v3.23l.6,0v2.57l.68.06v3.24l.63,0,.05.61.62.06,0,.6h1.26l.06.68h1.27l0,.66h.64v2H318l-.06.64-.6,0-.06.61-.61.06,0,.6-.62,0-.05.62-.61,0,0,.62-.62.05-.05.61-.6,0-.06.61-.61.05,0,.6h-1.93l-.05-.61-.6,0v-1.27l.62-.06,0-.62h1.26l.06-.64.61-.05,0-.6.62-.05.05-.6.61-.06,0-.6.62-.06v-.62h-1.27l-.05-.62h-1.93l0,.63H308.8l-.05.62h-3.89l0-.64h-5.21l0-.62H295l0,.61-.62,0,0,.6-.61.05-.06.64H292.4l0,.66h-1.93l0,.64h-1.93l-.06.68h-2.57l0,.64h-1.26l-.06.64-.6,0-.05.61-.6.05-.06.62-.6,0-.05.61-.62.06,0,.6-.64.05v.63h-2v-.63l-.64-.05V438.3l.61-.05.05-.62h1.25l.06-.64.61-.06,0-.59.61-.06.05-.61.62,0,0-.61.61,0,.05-.62.62,0V433h2l0-.64h1.29v-1.31l.64,0v-1.92l.68-.05v-1.93l.64,0v-1.28l.63,0v-.62l-.6-.05,0-.61h-1.91l-.06-.66h-1.25v-1.95h2.57l0,.6h1.26l.06.67h5.86l0,.63h7.19l0-.61h1.26l.06-.66h1.27l0-.65h1.28l0-.65.61,0,.05-.62.61,0V417.3l-.62,0V416l-.64,0-.06-.63H305.5V414l-.63,0v-1.27h1.92l0,.6.63.05,0,.61h.61l.05-.6.61-.05v-.61l-.6-.05,0-.61-.6,0-.06-.63h-1.26l0-.64h-1.26l-.06-.68h-1.27l0-.64h-1.28l0-.65-.61,0,0-.62-.62-.05,0-.6-.63-.06v-1.26l-.63,0v-2.6h.61v1.94l.66.06v1.27l.63,0,.05.61.62.05,0,.6.62.06,0,.6h.61l0-.6.62-.05,0-.61.62,0,0-.61.66-.05v-1.29h.61v1.94l-.59,0-.06.61-.61.06,0,.61-.6,0v.64h1.26l0,.64h1.27l.05.65h1.93l0-.6.62-.05,0-.62.61,0,.05-.61.61-.05v-.61l-.62-.05v-1.29Z" transform="translate(-278.63 -402.89)"/><path class="cls-1" d="M281.23,440.24v-.63l.64-.05,0-.6.62-.06.05-.61.6,0,.06-.62.6-.05.05-.61.6,0,.06-.64h1.26l0-.64h2.57l.06-.68h1.93l0-.64h1.93l0-.66h1.26l.06-.64.61-.05,0-.6.62,0,0-.61h4.55l0,.62h5.21l0,.64h3.89l.05-.62H312l0-.63H314l.05.62h1.27V433l-.62.06,0,.6-.61.06-.05.6-.62.05,0,.6-.61.05-.06.64h-1.26l0,.62-.62.06v1.27l.6,0,.05.61h1.93l0-.6.61-.05.06-.61.6,0,.05-.61.62-.05,0-.62.61,0L316,435l.62,0,0-.6.61-.06.06-.61.6,0L318,433h.62v7.22Z" transform="translate(-278.63 -402.89)"/><path d="M300.26,403.52v-.63h.62v.62h-.62Z" transform="translate(-278.63 -402.89)"/><path d="M305.51,405.48h-.64v-.63h.62v.64Z" transform="translate(-278.63 -402.89)"/><path d="M310.1,406.79h-.63v-.62h.61v.63Z" transform="translate(-278.63 -402.89)"/></svg>